<svg xmlns="http://www.w3.org/2000/svg" viewBox="0 0 24 24" width="1024" height="1024">
  <!-- App icon: the Lucide-style tooth from frontend/src/app/components/icons/tooth.tsx
       on the theme's primary color (#005eb8). Rendered to icon.png for Electron. -->
  <rect x="0.5" y="0.5" width="23" height="23" rx="5" fill="#005eb8"/>
  <g transform="translate(3.3 3.05) scale(0.725)" fill="none" stroke="#ffffff" stroke-width="2.2" stroke-linecap="round" stroke-linejoin="round">
    <path d="M 11.9999 4 C10 4 8.99991 3 6.99991 3"/>
    <path d="M 12 15 C15 15 14.5 22 16 22"/>
    <path d="M 16 22 C17 22 17.964 17 18.5 15"/>
    <path d="M 16.9999 3 C14.9999 3 13.9998 4 11.9999 4"/>
    <path d="M 18.4998 15 C19.0357 13 20.5 13 20.9999 9"/>
    <path d="M 2.99991 9 C3.50003 13 4.9998 13 5.4998 15"/>
    <path d="M 20.9999 9 C21.496 5.03088 18.9999 3 16.9999 3"/>
    <path d="M 5.5 15 C6 17 7 22 8 22"/>
    <path d="M 6.99991 3 C4.99991 3 2.50365 5.0309 2.99991 9"/>
    <path d="M 8 22 C9 22 9 15 12 15"/>
  </g>
</svg>
